# xmcd CD database file
#
# Track frame offsets:
#	150
#	10912
#	20150
#	31146
#	40964
#	55303
#	68453
#	77618
#	92181
#	99304
#	112637
#	128882
#	139299
#	153456
#	167195
#	184527
#	199990
#	217362
#	228365
#	246381
#	256252
#	266150
#	278853
#	287760
#	301846
#	313729
#
# Disc length: 4335 seconds
#
# Revision: 0
# Processed by: cddbd v1.5.2PL0 Copyright (c) Steve Scherf et al.
# Submitted via: CDex 1.51
#
DISCID=7610ed1a
DTITLE=Kathi Stimmer-Salzeder - Durch den Tag, durch das Jahr
DYEAR=2007
DGENRE=Christliche Lieder
TTITLE0=Wag den Weg
TTITLE1=Ich fan neu an jeden Tag
TTITLE2=Deine Hand und meine Hand
TTITLE3=Willkommen
TTITLE4=Gott sei mit dir auf deinem weg
TTITLE5=Liebe Schwester Sonne
TTITLE6=Flügel
TTITLE7=Kratz an deiner Schale
TTITLE8=Heil zurück (Fliegt der vogel aus dem Nest)
TTITLE9=Da ist einer unterwegs
TTITLE10=Ja, weil Gott deinen Namen kennt
TTITLE11=Du bist im Lachen
TTITLE12=Zur Mitte kommen
TTITLE13=Du bist da
TTITLE14=Der Du die Liebe bist
TTITLE15=Du für mich
TTITLE16=Dass der Friede
TTITLE17=Warm ist mein Licht
TTITLE18=Aus der Wurzel
TTITLE19=Sowie einer Kerze heller Schein
TTITLE20=Unter einem guten Stern
TTITLE21=Natele
TTITLE22=So wie ein Licht
TTITLE23=Wenn die Sonne leise geht
TTITLE24=Den Tag leg ich in Deine Hand
TTITLE25=Mond und Sterne
EXTD=YEAR: 2007
EXTT0=
EXTT1=
EXTT2=
EXTT3=
EXTT4=
EXTT5=
EXTT6=
EXTT7=
EXTT8=
EXTT9=
EXTT10=
EXTT11=
EXTT12=
EXTT13=
EXTT14=
EXTT15=
EXTT16=
EXTT17=
EXTT18=
EXTT19=
EXTT20=
EXTT21=
EXTT22=
EXTT23=
EXTT24=
EXTT25=
PLAYORDER=
